<svg width="280" height="280" viewBox="0 0 280 280" fill="none" xmlns="http://www.w3.org/2000/svg">
<g clip-path="url(#clip0_3_436)">
<rect width="280" height="280" fill="white"/>
<path d="M279.999 -0.000287547L-0.000710156 280" stroke="#D9D9D9" stroke-opacity="0.91" stroke-width="1.16667"/>
<path d="M0.00058228 -0.000376288L280.001 280" stroke="#D9D9D9" stroke-opacity="0.91" stroke-width="1.16667"/>
<rect x="23.9166" y="12.25" width="232.167" height="255.5" rx="11.0833" stroke="#D9D9D9" stroke-opacity="0.91" stroke-width="1.16667"/>
<rect x="12.25" y="23.9166" width="255.5" height="232.167" rx="11.0833" stroke="#D9D9D9" stroke-opacity="0.91" stroke-width="1.16667"/>
<rect x="12.25" y="12.25" width="255.5" height="255.5" rx="127.75" stroke="#D9D9D9" stroke-opacity="0.91" stroke-width="1.16667"/>
<path d="M104.835 207.505C103.756 206.013 101.671 205.679 100.179 206.758C98.6874 207.837 98.3528 209.922 99.4321 211.414L102.134 209.46L104.835 207.505ZM92.3532 215.662C91.2753 214.169 89.1912 213.832 87.6981 214.91C86.205 215.988 85.8684 218.072 86.9462 219.565L89.6497 217.614L92.3532 215.662ZM80.8193 225.873C79.7186 224.397 77.6295 224.092 76.1532 225.193C74.6769 226.294 74.3724 228.383 75.4732 229.859L78.1463 227.866L80.8193 225.873ZM92.8762 247.621L95.5493 245.628L80.8193 225.873L78.1463 227.866L75.4732 229.859L90.2031 249.615L92.8762 247.621ZM109.617 245.273L112.321 243.322L92.3532 215.662L89.6497 217.614L86.9462 219.565L106.914 247.225L109.617 245.273ZM102.134 209.46L99.4321 211.414L121.955 242.55L124.657 240.596L127.358 238.641L104.835 207.505L102.134 209.46Z" fill="black"/>
<path d="M147.472 181.735L146.106 184.777L146.758 185.07L147.472 185.07L147.472 181.735ZM111.496 165.586L112.861 162.544L112.267 162.278L111.615 162.254L111.496 165.586ZM86.6833 170.044L84.6537 167.399L86.6833 170.044ZM66.3154 185.342L64.3247 182.667L63.8253 183.039L63.4936 183.566L66.3154 185.342ZM73.0177 198.342L73.08 201.676L73.8277 201.662L74.4979 201.33L73.0177 198.342ZM99.3532 185.296L100.596 182.202L99.2105 181.646L97.8731 182.308L99.3532 185.296ZM109.831 189.503L112.686 187.78L112.11 186.824L111.074 186.409L109.831 189.503ZM141.919 206.925C143.727 206.579 144.913 204.832 144.566 203.023C144.22 201.214 142.473 200.029 140.664 200.376L141.292 203.65L141.919 206.925ZM147.472 181.735L148.837 178.694L112.861 162.544L111.496 165.586L110.13 168.628L146.106 184.777L147.472 181.735ZM111.496 165.586L111.615 162.254C107.886 162.12 102.504 162.46 97.5192 163.235C95.018 163.624 92.5431 164.134 90.3795 164.776C88.2959 165.394 86.1848 166.224 84.6537 167.399L86.6833 170.044L88.713 172.689C89.2521 172.276 90.4074 171.723 92.2765 171.169C94.0656 170.638 96.2296 170.184 98.5437 169.825C103.19 169.102 108.143 168.802 111.376 168.918L111.496 165.586ZM86.6833 170.044L84.6537 167.399C81.6358 169.714 76.5594 173.527 72.2245 176.771C70.0599 178.39 68.0847 179.865 66.6506 180.934C65.9336 181.469 65.352 181.902 64.9496 182.202C64.7485 182.352 64.5922 182.468 64.4862 182.547C64.4332 182.586 64.3928 182.617 64.3656 182.637C64.352 182.647 64.3418 182.655 64.3349 182.66C64.3315 182.662 64.3289 182.664 64.3272 182.665C64.3264 182.666 64.3257 182.666 64.3253 182.667C64.3251 182.667 64.3249 182.667 64.3248 182.667C64.3247 182.667 64.3247 182.667 66.3154 185.342C68.306 188.017 68.3061 188.017 68.3062 188.017C68.3063 188.017 68.3065 188.017 68.3067 188.016C68.3072 188.016 68.3078 188.016 68.3087 188.015C68.3105 188.014 68.3131 188.012 68.3166 188.009C68.3235 188.004 68.3338 187.996 68.3475 187.986C68.3748 187.966 68.4154 187.936 68.4686 187.896C68.575 187.817 68.7317 187.7 68.9333 187.55C69.3365 187.25 69.9191 186.815 70.6372 186.28C72.0733 185.209 74.0515 183.732 76.2197 182.11C80.5507 178.869 85.6583 175.033 88.713 172.689L86.6833 170.044ZM66.3154 185.342L63.4936 183.566C62.6675 184.878 61.8487 186.524 61.305 188.293C60.7704 190.033 60.4305 192.124 60.8267 194.209C61.2467 196.42 62.4781 198.481 64.7559 199.873C66.9108 201.19 69.721 201.739 73.08 201.676L73.0177 198.342L72.9555 195.008C70.2891 195.058 68.9005 194.591 68.2335 194.183C67.6893 193.851 67.4758 193.478 67.3782 192.964C67.2567 192.325 67.3266 191.4 67.6794 190.252C68.0232 189.134 68.5697 188.02 69.1371 187.118L66.3154 185.342ZM73.0177 198.342L74.4979 201.33L100.833 188.284L99.3532 185.296L97.8731 182.308L71.5376 195.354L73.0177 198.342ZM99.3532 185.296L98.1109 188.39L108.589 192.597L109.831 189.503L111.074 186.409L100.596 182.202L99.3532 185.296ZM109.831 189.503L106.976 191.225C110.983 197.866 123.543 210.445 141.919 206.925L141.292 203.65L140.664 200.376C126.162 203.154 115.953 193.195 112.686 187.78L109.831 189.503ZM147.472 181.735L147.472 185.07L175.084 185.07L175.084 181.735L175.084 178.401L147.472 178.401L147.472 181.735Z" fill="black"/>
<path d="M137.827 234.238L141.038 233.337L140.87 232.738L140.498 232.241L137.827 234.238ZM109.856 244.736L112.309 242.478L106.145 235.781L106.525 244.875L109.856 244.736ZM93.2624 248.071L95.6406 245.734L93.6274 243.685L91.3032 245.373L93.2624 248.071ZM53.785 216.711L56.7703 215.225L55.8504 213.376L53.785 213.376L53.785 216.711ZM105.745 185.778C104.642 184.304 102.552 184.003 101.078 185.105C99.603 186.208 99.3017 188.298 100.405 189.773L103.075 187.776L105.745 185.778ZM137.827 234.238L134.617 235.139C134.616 235.135 134.658 235.303 134.601 235.687C134.547 236.056 134.416 236.523 134.188 237.045C133.721 238.112 132.966 239.142 132.115 239.833C131.268 240.52 130.564 240.696 130.047 240.643C129.576 240.594 128.6 240.286 127.315 238.586L124.655 240.596L121.994 242.606C124.041 245.315 126.536 246.983 129.358 247.276C132.134 247.564 134.545 246.449 136.318 245.01C138.086 243.575 139.454 241.645 140.297 239.717C141.1 237.883 141.651 235.521 141.038 233.337L137.827 234.238ZM124.655 240.596L121.994 242.606C122.654 243.48 122.537 245.083 120.958 246.001C119.822 246.662 116.739 247.291 112.309 242.478L109.856 244.736L107.403 246.994C113.121 253.207 119.535 254.543 124.311 251.766C128.644 249.246 130.852 243.267 127.315 238.586L124.655 240.596ZM109.856 244.736L106.525 244.875C106.54 245.257 106.396 246.112 105.884 247.089C105.39 248.033 104.706 248.795 103.955 249.228C103.281 249.617 102.422 249.828 101.214 249.513C99.9166 249.176 98.0414 248.177 95.6406 245.734L93.2624 248.071L90.8841 250.408C93.8079 253.383 96.692 255.227 99.5333 255.967C102.463 256.73 105.121 256.254 107.288 255.004C109.377 253.798 110.856 251.969 111.792 250.183C112.71 248.429 113.263 246.413 113.187 244.597L109.856 244.736ZM93.2624 248.071L91.3032 245.373C90.758 245.769 90.2431 246.194 89.7973 246.565C89.3267 246.957 88.9352 247.288 88.5269 247.605C87.7181 248.233 87.0886 248.605 86.4855 248.793C85.6047 249.067 83.755 249.269 79.8215 246.254L77.7933 248.901L75.7651 251.547C80.5957 255.249 84.695 256.333 88.465 255.161C90.1873 254.626 91.5586 253.693 92.6156 252.873C93.1403 252.466 93.648 252.037 94.0665 251.688C94.5098 251.319 94.874 251.021 95.2215 250.769L93.2624 248.071ZM77.7933 248.901L79.8215 246.254C75.8783 243.232 70.9269 237.173 66.4333 230.788C61.9883 224.472 58.2766 218.253 56.7703 215.225L53.785 216.711L50.7997 218.196C52.5041 221.622 56.4145 228.14 60.98 234.626C65.4968 241.044 70.9443 247.852 75.7651 251.547L77.7933 248.901ZM26.8473 182.002L26.8473 185.336L69.3652 185.336L69.3652 182.002L69.3652 178.668L26.8473 178.668L26.8473 182.002ZM137.827 234.238L140.498 232.241L105.745 185.778L103.075 187.776L100.405 189.773L135.157 236.235L137.827 234.238ZM53.785 216.711L53.785 213.376L23.8221 213.376L23.8221 216.711L23.8221 220.045L53.785 220.045L53.785 216.711Z" fill="black"/>
<path d="M136.152 227.873C138.891 225.912 146.716 218.01 147.857 217.193L175.083 217.193" stroke="black" stroke-width="6.66864"/>
<rect x="18.3518" y="175.131" width="6.27067" height="44.3234" rx="3.13534" stroke="black" stroke-width="6.27067"/>
<rect x="175.423" y="175.131" width="6.27067" height="44.3234" rx="3.13534" stroke="black" stroke-width="6.27067"/>
<path d="M23.3334 134.167H268.333" stroke="black" stroke-width="5.25" stroke-linejoin="round"/>
<path d="M245 64.1667C215.772 79.0139 181.919 87.5 145.833 87.5C109.747 87.5 75.8941 79.0139 46.6666 64.1667" stroke="black" stroke-width="5.83333"/>
<path d="M145.833 11.6667C216.709 11.6667 274.167 69.1233 274.167 140L274.156 141.659C273.268 211.771 216.156 268.334 145.833 268.334L144.404 268.326C137.616 268.252 130.955 267.648 124.459 266.558C125.59 264.923 126.51 263.081 127.168 261.087C133.252 262.017 139.485 262.5 145.833 262.5C213.488 262.5 268.333 207.655 268.333 140C268.333 72.345 213.488 17.4997 145.833 17.4997C78.1784 17.4999 23.3332 72.3451 23.333 140C23.333 147.857 24.0729 155.538 25.4844 162.977L19.9707 165.182C18.3506 157.039 17.5 148.619 17.5 140C17.5002 69.1234 74.9567 11.6669 145.833 11.6667Z" fill="black"/>
<path d="M165.096 233.334C155.286 255.032 145.833 268.334 145.833 268.334C145.833 268.334 141.658 262.457 135.977 252.144L140.521 248.298C141.943 250.908 143.276 253.246 144.479 255.286C144.951 256.088 145.404 256.844 145.833 257.552C146.262 256.844 146.716 256.088 147.188 255.286C150.364 249.899 154.451 242.44 158.678 233.334H165.096ZM145.833 11.6667C145.833 11.6667 186.667 69.1233 186.667 140L186.659 141.659C186.585 149.909 185.964 157.971 184.924 165.776H179.035C180.177 157.449 180.833 148.827 180.833 140C180.833 105.64 170.923 74.3813 160.91 51.6022C155.914 40.2363 150.921 31.0448 147.188 24.7136C146.716 23.9113 146.263 23.1554 145.833 22.447C145.404 23.1553 144.951 23.9114 144.479 24.7136C140.746 31.0448 135.753 40.2363 130.757 51.6022C120.744 74.3813 110.833 105.64 110.833 140C110.833 146.701 111.211 153.285 111.893 159.711H106.027C105.366 153.285 105 146.702 105 140C105 69.1899 145.756 11.7746 145.833 11.6667Z" fill="black"/>
<path d="M246.643 210.758C240.072 200.144 208.433 184.982 191.047 184.982" stroke="black" stroke-width="5.83249"/>
</g>
<rect x="0.5" y="0.5" width="279" height="279" stroke="#D9D9D9" stroke-opacity="0.91"/>
<defs>
<clipPath id="clip0_3_436">
<rect width="280" height="280" fill="white"/>
</clipPath>
</defs>
</svg>
